<?xml version="1.0" standalone="no"?>
<!DOCTYPE svg PUBLIC "-//W3C//DTD SVG 20010904//EN"
 "http://www.w3.org/TR/2001/REC-SVG-20010904/DTD/svg10.dtd">
<svg version="1.0" xmlns="http://www.w3.org/2000/svg"
 width="180.000000pt" height="180.000000pt" viewBox="0 0 180.000000 180.000000"
 preserveAspectRatio="xMidYMid meet">
<metadata>
Created by potrace 1.11, written by Peter Selinger 2001-2013
</metadata>
<g transform="translate(0.000000,180.000000) scale(0.100000,-0.100000)"
fill="#000000" stroke="none">
<path d="M1125 1446 c-109 -31 -150 -124 -143 -321 7 -188 20 -204 180 -239
101 -22 108 -33 108 -149 0 -81 -2 -90 -26 -114 -25 -25 -28 -25 -140 -21
l-115 4 3 -70 c3 -68 4 -70 33 -79 17 -5 84 -9 150 -10 153 -2 185 11 230 98
29 57 30 61 30 209 0 218 -13 239 -169 277 -48 12 -94 28 -102 36 -10 10 -14
39 -14 98 0 67 4 87 19 106 18 23 26 24 130 24 l111 -1 0 72 c0 70 -1 72 -27
78 -69 14 -209 16 -258 2z"/>
<path d="M563 1430 c-55 -13 -96 -44 -121 -91 -29 -58 -45 -164 -37 -254 15
-158 35 -188 145 -210 105 -21 127 -32 139 -67 14 -39 14 -122 1 -170 -16 -54
-36 -61 -162 -56 l-108 6 0 -74 0 -73 48 -8 c61 -10 229 -10 264 0 47 13 95
64 115 120 13 39 18 83 18 182 0 205 -20 239 -166 275 -49 12 -97 29 -105 37
-10 10 -14 39 -14 103 0 85 1 90 28 110 25 21 34 22 130 17 l103 -6 -3 72 -3
72 -55 12 c-63 13 -170 15 -217 3z"/>
</g>
</svg>
